<svg width="117" height="102" viewBox="0 0 117 102" fill="none" xmlns="http://www.w3.org/2000/svg">
<path fill-rule="evenodd" clip-rule="evenodd" d="M59 0C87.1665 0 110 22.8335 110 51C110 79.1665 87.1665 102 59 102C30.8335 102 8 79.1665 8 51C8 22.8335 30.8335 0 59 0ZM52.5555 37L47 44V65H58.1111V44L52.5555 37ZM70.6111 39.8H62.2778C61.5107 39.8 60.8889 40.4268 60.8889 41.2V63.6C60.8889 64.3732 61.5107 65 62.2778 65H70.6111C71.3781 65 72 64.3732 72 63.6V59.4H69.2222V56.6H72V53.8H67.8333V51H72V48.2H69.2222V45.4H72V41.2C72 40.4268 71.3781 39.8 70.6111 39.8ZM55.3333 59.4V62.2H49.7778V59.4H55.3333Z" fill="black"/>
</svg>
